<svg xmlns="http://www.w3.org/2000/svg" height="48" viewBox="0 96 960 960" width="48"><path d="M206.846 697.269q-13.731-29.346-19.942-58.75-6.212-29.404-6.212-60.634 0-123.847 87.539-211.904 87.538-88.058 211.884-88.058h72.577l-91.654-91.654 20.193-20.192 126.884 127-126.884 126.115-20.423-20.423 90.653-90.654h-71.346q-111.73 0-190.48 79.327-78.75 79.327-78.75 190.443 0 25.038 4.673 50.211t13.057 47.404l-21.769 21.769Zm271.462 289.885-126.885-127 126.885-126.116 19.423 19.424-90.885 91.653h73.039q111.73 0 190.48-79.327 78.75-79.326 78.75-190.442 0-25.038-4.173-50.211-4.173-25.174-12.904-47.404l21.77-21.77q12.077 29.347 18.788 58.75 6.712 29.404 6.712 60.635 0 123.846-87.539 211.904-87.538 88.058-211.884 88.058h-73.039l90.885 91.654-19.423 20.192Z"/></svg>